<svg width="170" height="198" viewBox="0 0 170 198" fill="none" xmlns="http://www.w3.org/2000/svg">
    <g clip-path="url(#clip0_1035_24405)">
        <rect width="170" height="198" fill="var(--bg)" />
        <path fill-rule="evenodd" clip-rule="evenodd"
            d="M108 245L254 245V114C254 73.6832 221.317 41 181 41C140.683 41 108 73.6832 108 114L108 245ZM266 257V114C266 67.0558 227.944 29 181 29C134.056 29 96 67.0558 96 114L96 257H266Z"
            fill="var(--bg-secondary)" />
        <path fill-rule="evenodd" clip-rule="evenodd"
            d="M108 245L254 245V208C254 167.683 221.317 135 181 135C140.683 135 108 167.683 108 208V245ZM266 257V208C266 161.056 227.944 123 181 123C134.056 123 96 161.056 96 208V257H266Z"
            fill="var(--bg-secondary)" />
        <path fill-rule="evenodd" clip-rule="evenodd"
            d="M108 245L254 245V161C254 120.683 221.317 88 181 88C140.683 88 108 120.683 108 161V245ZM266 257V161C266 114.056 227.944 76 181 76C134.056 76 96 114.056 96 161V257H266Z"
            fill="var(--bg-secondary)" />
        <path fill-rule="evenodd" clip-rule="evenodd"
            d="M26 84.1842C64.1077 84.1842 95 115.077 95 153.184V203L-43 203L-43 153.184C-43 115.077 -12.1076 84.1842 26 84.1842ZM-43 110.736C-28.7387 87.6036 -3.17006 72.1842 26 72.1842C55.1701 72.1842 80.7387 87.6035 95 110.736V103.092C95 64.9845 64.1077 34.0921 26 34.0921C-12.1076 34.0921 -43 64.9845 -43 103.092V110.736ZM-43 60.6441C-28.7387 37.5114 -3.17006 22.0921 26 22.0921C55.1701 22.0921 80.7387 37.5114 95 60.644V53C95 14.8923 64.1077 -16 26 -16C-12.1077 -16 -43 14.8923 -43 53V60.6441ZM-55 103.092L-55 53C-55 8.26494 -18.7351 -28 26 -28C70.7351 -28 107 8.26494 107 53L107 103.092V153.184V203V215H95L-43 215H-55V203L-55 153.184L-55 103.092Z"
            fill="var(--bg-secondary)" />
    </g>
    <defs>
        <clipPath id="clip0_1035_24405">
            <rect width="170" height="198" fill="white" />
        </clipPath>
    </defs>
</svg>