<svg width="170" height="198" viewBox="0 0 170 198" fill="none" xmlns="http://www.w3.org/2000/svg">
    <g clip-path="url(#clip0_1035_24396)">
        <rect width="170" height="198" fill="var(--bg)" />
        <path fill-rule="evenodd" clip-rule="evenodd"
            d="M6.47024 87.5281C2.19859 77.2154 0 66.1624 0 55L85 55C96.1624 55 107.215 57.1986 117.528 61.4702C127.841 65.7419 137.211 72.0029 145.104 79.8959C152.997 87.7889 159.258 97.1592 163.53 107.472C167.801 117.785 170 128.838 170 140H85C73.8376 140 62.7846 137.801 52.4719 133.53C42.1592 129.258 32.7889 122.997 24.8959 115.104C17.0029 107.211 10.7419 97.8408 6.47024 87.5281Z"
            fill="var(--bg-secondary)" />
        <path fill-rule="evenodd" clip-rule="evenodd"
            d="M6.47024 172.528C2.19859 162.215 0 151.162 0 140L85 140C96.1624 140 107.215 142.199 117.528 146.47C127.841 150.742 137.211 157.003 145.104 164.896C152.997 172.789 159.258 182.159 163.53 192.472C167.801 202.785 170 213.838 170 225H85C73.8376 225 62.7846 222.801 52.4719 218.53C42.1592 214.258 32.7889 207.997 24.8959 200.104C17.0029 192.211 10.7419 182.841 6.47024 172.528Z"
            fill="var(--bg-secondary)" />
        <path fill-rule="evenodd" clip-rule="evenodd"
            d="M6.47024 2.52809C2.19859 -7.78459 0 -18.8376 0 -30L85 -30C96.1624 -30 107.215 -27.8014 117.528 -23.5298C127.841 -19.2581 137.211 -12.9971 145.104 -5.10408C152.997 2.7889 159.258 12.1592 163.53 22.4719C167.801 32.7846 170 43.8376 170 55H85C73.8376 55 62.7846 52.8014 52.4719 48.5298C42.1592 44.2581 32.7889 37.9971 24.8959 30.1041C17.0029 22.2111 10.7419 12.8408 6.47024 2.52809Z"
            fill="var(--bg-secondary)" />
    </g>
    <defs>
        <clipPath id="clip0_1035_24396">
            <rect width="170" height="198" fill="white" />
        </clipPath>
    </defs>
</svg>