<svg width="170" height="198" viewBox="0 0 170 198" fill="none" xmlns="http://www.w3.org/2000/svg">
    <g clip-path="url(#clip0_1035_24397)">
        <rect width="170" height="198" fill="var(--bg-secondary)" />
        <path
            d="M194.98 70.341C197.438 69.9118 197.496 69.648 199.708 71.0707L200 76.6527C196.652 84.1964 187.476 90.792 181.428 96.4271C175.252 102.18 169.898 108.12 164.21 114.295C153.754 125.653 82.3533 200.621 72.7592 201C69.9613 200.724 69.2097 200.768 67 199.099L194.98 70.341Z"
            fill="var(--bg)" />
        <path
            d="M74.8379 -2.75099C80.0825 -5.20103 91.7705 -3.2893 98 -3.29936L9.3422 87.2314L-2.10548 98L-4 73.9473L46.878 22.6826C55.1543 14.4848 64.6244 2.82323 74.8379 -2.75099Z"
            fill="var(--bg)" />
        <path
            d="M195.212 37.2734C197.736 36.8941 197.869 36.7213 200.206 38.0471L200.973 42.7578C201.138 45.0037 200.56 47.9743 199.081 49.6556C191.184 58.6365 181.919 66.343 173.408 74.7393L123.907 124.465L68.1717 180.315C62.5952 185.887 57.1873 193.493 51.13 198.327C47.7446 201.029 45.5686 200.735 41.4192 201C39.4635 200.778 37.7808 199.916 36 199.133C36.8898 194.65 41.8685 190.489 45.1218 187.228L72.2695 160.213L160.972 72.2092C172.407 60.6207 184.939 49.9235 195.212 37.2734Z"
            fill="var(--bg)" />
        <path
            d="M-2.80171 -3.51096L25.586 -3.5148C30.1039 -3.49572 35.0637 -4.01476 39.3771 -2.52123L40.0234 -2.27315C45.8214 -5.02485 59.2729 -4.15341 65.2704 -1.99328L66 -0.34328L29.1635 36.304C18.4878 46.6658 8.25393 59.0948 -3.59824 68L-3.8646 61.3568C-3.75982 56.637 -4.6523 42.2425 -2.89638 38.5965C-2.50253 37.7797 -0.566079 36.3358 0.15977 35.6323L-3.68407 32.733L-2.80171 -3.51096Z"
            fill="var(--bg)" />
        <path
            d="M121.662 -3.79166L123.912 -4C125.337 -3.19168 125.376 -3.18667 126 -1.68048C124.644 2.66739 119.473 5.89942 116.252 9.09505L87.9064 36.7964L17.9932 107.094C11.6902 113.431 6.22901 120.515 -0.177181 126.791L-2.88889 128C-4.99283 121.992 -2.49755 114.373 -3.76973 107.797L-4 106.662C-1.48081 103.324 1.91922 100.944 4.89267 98.0319L23.6872 79.2308L60.9163 40.8782L89.9549 11.5351C92.9485 8.21267 101.446 -1.77838 105.519 -2.83271C110.033 -4.00126 116.888 -3.53687 121.662 -3.79166Z"
            fill="var(--bg)" />
        <path
            d="M194.697 4H197.272C199.981 7.54304 199.602 10.9704 200 15.3156C196.743 22.9511 187.528 29.4513 181.723 35.4146L118.014 98.8248L22.1306 196.269C17.381 200.991 14.0201 201.038 7.4501 200.994L2.42813 199.502L2 197.623L194.697 4Z"
            fill="var(--bg)" />
        <path
            d="M139.675 -4L160 -2.42793C148.204 12.4321 132.41 25.0249 118.808 38.3379L56.0113 101.534C39.1307 118.115 21.2913 133.542 5.68649 151.383L-3.21617 161L-4 138.838C-1.17797 133.126 5.61228 127.78 10.2687 123.45L38.8199 96.5656L139.675 -4Z"
            fill="var(--bg)" />
        <path
            d="M169.383 -3L190 -2.85653L7.61138 179.455L-3.62663 190C-3.74862 185.369 -4.66039 173.448 -3.08838 169.719C-2.57653 168.505 0.821532 165.982 1.92068 164.924L17.8798 149.315L130.536 36.1585C143.272 23.0654 158.019 11.2797 169.383 -3Z"
            fill="var(--bg)" />
    </g>
    <defs>
        <clipPath id="clip0_1035_24397">
            <rect width="170" height="198" fill="white" />
        </clipPath>
    </defs>
</svg>