<svg width="170" height="198" viewBox="0 0 170 198" fill="none" xmlns="http://www.w3.org/2000/svg">
    <g clip-path="url(#clip0_1035_24399)">
        <rect width="170" height="198" fill="var(--bg)" />
        <path fill-rule="evenodd" clip-rule="evenodd"
            d="M133.429 128V144.141H125.556C109.522 144.141 96.5238 157.062 96.5238 173C96.5238 188.938 109.522 201.859 125.556 201.859H133.429V218H125.556C100.554 218 80.2857 197.853 80.2857 173C80.2857 148.147 100.554 128 125.556 128H133.429Z"
            fill="var(--bg-secondary)" />
        <path fill-rule="evenodd" clip-rule="evenodd"
            d="M80.2857 128V144.141H72.4127C56.3789 144.141 43.381 157.062 43.381 173C43.381 188.938 56.3789 201.859 72.4127 201.859H80.2857V218H72.4127C47.4109 218 27.1429 197.853 27.1429 173C27.1429 148.147 47.4109 128 72.4127 128H80.2857Z"
            fill="var(--bg-secondary)" />
        <path fill-rule="evenodd" clip-rule="evenodd"
            d="M27.1429 128V144.141H19.2698C3.23605 144.141 -9.7619 157.062 -9.7619 173C-9.7619 188.938 3.23605 201.859 19.2698 201.859H27.1429V218H19.2698C-5.732 218 -26 197.853 -26 173C-26 148.147 -5.732 128 19.2698 128H27.1429Z"
            fill="var(--bg-secondary)" />
        <path fill-rule="evenodd" clip-rule="evenodd"
            d="M186.286 -21V-4.8587H178.413C162.379 -4.8587 149.381 8.06178 149.381 24C149.381 39.9382 162.379 52.8587 178.413 52.8587H186.286V69H178.413C153.411 69 133.143 48.8528 133.143 24C133.143 -0.852813 153.411 -21 178.413 -21H186.286Z"
            fill="var(--bg-secondary)" />
        <path fill-rule="evenodd" clip-rule="evenodd"
            d="M133.143 -21V-4.8587H125.27C109.236 -4.8587 96.2381 8.06178 96.2381 24C96.2381 39.9382 109.236 52.8587 125.27 52.8587H133.143V69H125.27C100.268 69 80 48.8528 80 24C80 -0.852813 100.268 -21 125.27 -21H133.143Z"
            fill="var(--bg-secondary)" />
        <path fill-rule="evenodd" clip-rule="evenodd"
            d="M186 54V70.1413H178.127C162.093 70.1413 149.095 83.0618 149.095 99C149.095 114.938 162.093 127.859 178.127 127.859H186V144H178.127C153.125 144 132.857 123.853 132.857 99C132.857 74.1472 153.125 54 178.127 54H186Z"
            fill="var(--bg-secondary)" />
        <path fill-rule="evenodd" clip-rule="evenodd"
            d="M132.857 54V70.1413H124.984C108.95 70.1413 95.9523 83.0618 95.9523 99C95.9523 114.938 108.95 127.859 124.984 127.859H132.857V144H124.984C99.9822 144 79.7142 123.853 79.7142 99C79.7142 74.1472 99.9822 54 124.984 54H132.857Z"
            fill="var(--bg-secondary)" />
        <path fill-rule="evenodd" clip-rule="evenodd"
            d="M79.7143 54V70.1413H71.8413C55.8075 70.1413 42.8095 83.0618 42.8095 99C42.8095 114.938 55.8075 127.859 71.8413 127.859H79.7143V144H71.8413C46.8394 144 26.5714 123.853 26.5714 99C26.5714 74.1472 46.8394 54 71.8413 54H79.7143Z"
            fill="var(--bg-secondary)" />
    </g>
    <defs>
        <clipPath id="clip0_1035_24399">
            <rect width="170" height="198" fill="white" />
        </clipPath>
    </defs>
</svg>