<svg width="56" height="56" viewBox="0 0 56 56" fill="none" xmlns="http://www.w3.org/2000/svg">
<rect width="56" height="56" rx="28" fill="#17D686"/>
<path fill-rule="evenodd" clip-rule="evenodd" d="M26.1285 33.0793L27.1268 32.5486C27.6727 32.2583 28.3271 32.2583 28.873 32.5486L29.8713 33.0793C29.9282 33.1095 29.9866 33.1368 30.0463 33.1609C30.9984 33.5465 32.0829 33.0872 32.4685 32.1351L32.9084 31.0488C33.1384 30.4807 33.6336 30.0624 34.2322 29.9305L35.3674 29.6804C35.4212 29.6685 35.4745 29.6543 35.5271 29.6377C36.5067 29.3284 37.0501 28.2836 36.7409 27.304L36.3742 26.1425C36.1918 25.5648 36.3022 24.9344 36.67 24.4531L37.4076 23.488C37.4391 23.4467 37.4689 23.4042 37.4969 23.3604C38.0502 22.4949 37.7971 21.3447 36.9316 20.7914L35.9267 20.149C35.4139 19.8212 35.094 19.2633 35.07 18.6551L35.0227 17.4548C35.0204 17.3948 35.0151 17.3349 35.0069 17.2754C34.8674 16.2577 33.9292 15.5457 32.9115 15.6853L31.7842 15.8399C31.1732 15.9237 30.5603 15.6991 30.1481 15.2404L29.3833 14.3894C29.3392 14.3403 29.2924 14.2935 29.2432 14.2493C28.4792 13.5627 27.3031 13.6254 26.6165 14.3894L25.8518 15.2404C25.4395 15.6991 24.8267 15.9237 24.2157 15.8399L23.0884 15.6853C23.0288 15.6771 22.9689 15.6719 22.9089 15.6695C21.8825 15.6291 21.0176 16.4284 20.9771 17.4548L20.9298 18.6551C20.9059 19.2633 20.5859 19.8212 20.0731 20.149L19.0682 20.7914C19.0245 20.8194 18.9819 20.8492 18.9406 20.8808C18.1244 21.5045 17.9685 22.6718 18.5922 23.488L19.3298 24.4531C19.6977 24.9344 19.8081 25.5648 19.6257 26.1425L19.259 27.304C19.2424 27.3566 19.2281 27.4099 19.2162 27.4638C18.9952 28.467 19.6293 29.4594 20.6325 29.6804L21.7677 29.9305C22.3662 30.0624 22.8614 30.4807 23.0915 31.0488L23.5314 32.1351C23.5556 32.1948 23.5828 32.2532 23.6131 32.3101C24.0953 33.2171 25.2215 33.5615 26.1285 33.0793ZM21.6788 35.1338C22.3095 35.7644 23.0872 36.2065 23.9237 36.4323C24.0572 36.4683 24.2458 36.5059 24.4895 36.545C24.6232 36.5665 24.7347 36.659 24.7805 36.7864L26.0865 40.4174C26.1158 40.4988 26.1158 40.5878 26.0865 40.6692L24.8829 44.0155C24.7696 44.3306 24.4253 44.4931 24.1139 44.3784C24.0026 44.3374 23.9057 44.264 23.8356 44.1674L22.2604 41.9982C22.1365 41.8277 22.0802 41.7746 22.0082 41.7268C21.9362 41.6791 21.8586 41.6505 21.7731 41.6403C21.6876 41.63 21.6108 41.634 21.4075 41.6841L18.8229 42.3212C18.501 42.4006 18.1764 42.2008 18.098 41.875C18.0699 41.7586 18.0766 41.6363 18.1171 41.5237L20.4192 35.1234L20.5782 34.6813C20.6479 34.488 20.8609 34.3877 21.0542 34.4572C21.1241 34.4824 21.1849 34.5279 21.2287 34.588C21.401 34.8241 21.551 35.0061 21.6788 35.1338ZM35.4315 34.7086L37.8828 41.5237C37.9961 41.8388 37.8356 42.1872 37.5242 42.3019C37.4129 42.3429 37.292 42.3496 37.177 42.3212L34.5924 41.6842C34.3891 41.6341 34.3123 41.6301 34.2268 41.6403C34.1413 41.6505 34.0637 41.6791 33.9917 41.7269C33.9197 41.7746 33.8634 41.8277 33.7395 41.9983L32.1643 44.1674C31.9681 44.4376 31.5925 44.4957 31.3255 44.2971C31.2301 44.2262 31.1575 44.1282 31.117 44.0156L28.499 36.7371C28.4297 36.5438 28.53 36.3308 28.7232 36.2613C28.8142 36.2286 28.9143 36.2326 29.0024 36.2725C29.0411 36.29 29.066 36.3008 29.077 36.3048C31.1323 37.0525 33.3803 36.363 34.6988 34.7118C34.7233 34.6811 34.7496 34.6465 34.7777 34.6079C34.8985 34.4415 35.1314 34.4049 35.2976 34.526C35.3578 34.5699 35.4035 34.6308 35.4287 34.7009L35.4315 34.7086Z" fill="white"/>
</svg>
