<svg width="56" height="56" viewBox="0 0 56 56" fill="none" xmlns="http://www.w3.org/2000/svg">
<rect width="56" height="56" rx="28" fill="#FF3A72"/>
<path d="M28 14C35.7315 14 42 20.2685 42 28C42 35.7315 35.7315 42 28 42C20.2685 42 14 35.7315 14 28C14 20.2685 20.2685 14 28 14ZM28 20C27.0059 20 26.2 20.8059 26.2 21.8V28C26.2 28.2341 26.2447 28.4577 26.3263 28.6635C26.3365 28.6893 26.3473 28.7149 26.3588 28.7403L26.4109 28.8462L26.4343 28.889L26.4598 28.932C26.4868 28.9766 26.5157 29.0199 26.5459 29.0614C26.5654 29.0881 26.5858 29.1144 26.6077 29.1409C26.6324 29.1711 26.6582 29.2005 26.6842 29.2283L26.7055 29.2507L30.7272 33.2728L30.9115 33.4339C31.6171 33.9709 32.6284 33.9172 33.2728 33.2728L33.4339 33.0885C33.9709 32.3829 33.9172 31.3716 33.2728 30.7272L29.798 27.252L29.8 21.8C29.8 20.8059 28.9941 20 28 20Z" fill="white"/>
</svg>
