<svg width="56" height="56" viewBox="0 0 56 56" fill="none" xmlns="http://www.w3.org/2000/svg">
<rect width="56" height="56" rx="28" fill="#0077FF"/>
<path fill-rule="evenodd" clip-rule="evenodd" d="M28 12C36.8366 12 44 19.1634 44 28C44 36.8366 36.8366 44 28 44C19.1634 44 12 36.8366 12 28C12 19.1634 19.1634 12 28 12ZM28.295 18.9085C27.9649 18.7456 27.5651 18.8812 27.4022 19.2113L24.8651 24.3519L19.1922 25.1762C19.0471 25.1973 18.913 25.2656 18.8106 25.3706C18.5536 25.6343 18.559 26.0564 18.8227 26.3134L22.9277 30.3148L21.9586 35.9648C21.9339 36.1093 21.9574 36.258 22.0256 36.3877C22.197 36.7136 22.6 36.8389 22.9259 36.6676L28 34L33.0741 36.6676C33.2038 36.7358 33.3525 36.7594 33.497 36.7346C33.8599 36.6723 34.1036 36.3277 34.0414 35.9648L33.0723 30.3148L37.1773 26.3134C37.2823 26.211 37.3506 26.0769 37.3717 25.9318C37.4246 25.5675 37.1722 25.2292 36.8078 25.1762L31.1349 24.3519L28.5978 19.2113C28.5329 19.0798 28.4265 18.9734 28.295 18.9085Z" fill="white"/>
</svg>
