<svg width="64" height="64" viewBox="0 0 64 64" fill="none" xmlns="http://www.w3.org/2000/svg">
<g clip-path="url(#clip0_335_5246)">
<rect width="64" height="64" fill="white"/>
<path d="M108 0H-14V64H108V0Z" fill="#B22234"/>
<path d="M-14 7.38461H108H-14ZM108 17.2308H-14H108ZM-14 27.0769H108H-14ZM108 36.9231H-14H108ZM-14 46.7692H108H-14ZM108 56.6154H-14H108Z" fill="black"/>
<path fill-rule="evenodd" clip-rule="evenodd" d="M108 9.84614H-14V4.92307H108V9.84614ZM-14 14.7692H108V19.6923H-14V14.7692ZM108 29.5385H-14V24.6154H108V29.5385ZM-14 34.4615H108V39.3846H-14V34.4615ZM108 49.2308H-14V44.3077H108V49.2308ZM-14 54.1538H108V59.0769H-14V54.1538Z" fill="white"/>
<path d="M34.8 0H-14V34.4615H34.8V0Z" fill="#0A2B7A"/>
<path d="M-1.80001 1.47693L-0.638713 5.0393L-3.67902 2.83763H0.0790045L-2.9613 5.0393L-1.80001 1.47693Z" fill="white"/>
<path d="M-1.80001 8.36923L-0.638713 11.9316L-3.67902 9.72994H0.0790045L-2.9613 11.9316L-1.80001 8.36923Z" fill="white"/>
<path d="M-1.80001 15.2615L-0.638713 18.8239L-3.67902 16.6222H0.0790045L-2.9613 18.8239L-1.80001 15.2615Z" fill="white"/>
<path d="M-1.80001 22.1538L-0.638713 25.7162L-3.67902 23.5145H0.0790045L-2.9613 25.7162L-1.80001 22.1538Z" fill="white"/>
<path d="M-1.80001 29.0462L-0.638713 32.6085L-3.67902 30.4069H0.0790045L-2.9613 32.6085L-1.80001 29.0462Z" fill="white"/>
<path d="M2.26666 4.9231L3.42795 8.48547L0.38765 6.2838H4.14567L1.10537 8.48547L2.26666 4.9231Z" fill="white"/>
<path d="M2.26666 11.8154L3.42795 15.3778L0.38765 13.1761H4.14567L1.10537 15.3778L2.26666 11.8154Z" fill="white"/>
<path d="M2.26666 18.7077L3.42795 22.2701L0.38765 20.0684H4.14567L1.10537 22.2701L2.26666 18.7077Z" fill="white"/>
<path d="M2.26666 25.6L3.42795 29.1624L0.38765 26.9607H4.14567L1.10537 29.1624L2.26666 25.6Z" fill="white"/>
<path d="M6.33333 1.47693L7.49462 5.0393L4.45432 2.83763H8.21234L5.17204 5.0393L6.33333 1.47693Z" fill="white"/>
<path d="M6.33333 8.36923L7.49462 11.9316L4.45432 9.72994H8.21234L5.17204 11.9316L6.33333 8.36923Z" fill="white"/>
<path d="M6.33333 15.2615L7.49462 18.8239L4.45432 16.6222H8.21234L5.17204 18.8239L6.33333 15.2615Z" fill="white"/>
<path d="M6.33333 22.1538L7.49462 25.7162L4.45432 23.5145H8.21234L5.17204 25.7162L6.33333 22.1538Z" fill="white"/>
<path d="M6.33333 29.0462L7.49462 32.6085L4.45432 30.4069H8.21234L5.17204 32.6085L6.33333 29.0462Z" fill="white"/>
<path d="M10.4 4.9231L11.5613 8.48547L8.52098 6.2838H12.279L9.2387 8.48547L10.4 4.9231Z" fill="white"/>
<path d="M10.4 11.8154L11.5613 15.3778L8.52098 13.1761H12.279L9.2387 15.3778L10.4 11.8154Z" fill="white"/>
<path d="M10.4 18.7077L11.5613 22.2701L8.52098 20.0684H12.279L9.2387 22.2701L10.4 18.7077Z" fill="white"/>
<path d="M10.4 25.6L11.5613 29.1624L8.52098 26.9607H12.279L9.2387 29.1624L10.4 25.6Z" fill="white"/>
<path d="M14.4667 1.47693L15.628 5.0393L12.5877 2.83763H16.3457L13.3054 5.0393L14.4667 1.47693Z" fill="white"/>
<path d="M14.4667 8.36923L15.628 11.9316L12.5877 9.72994H16.3457L13.3054 11.9316L14.4667 8.36923Z" fill="white"/>
<path d="M14.4667 15.2615L15.628 18.8239L12.5877 16.6222H16.3457L13.3054 18.8239L14.4667 15.2615Z" fill="white"/>
<path d="M14.4667 22.1538L15.628 25.7162L12.5877 23.5145H16.3457L13.3054 25.7162L14.4667 22.1538Z" fill="white"/>
<path d="M14.4667 29.0462L15.628 32.6085L12.5877 30.4069H16.3457L13.3054 32.6085L14.4667 29.0462Z" fill="white"/>
<path d="M18.5333 4.9231L19.6946 8.48547L16.6543 6.2838H20.4123L17.372 8.48547L18.5333 4.9231Z" fill="white"/>
<path d="M18.5333 11.8154L19.6946 15.3778L16.6543 13.1761H20.4123L17.372 15.3778L18.5333 11.8154Z" fill="white"/>
<path d="M18.5333 18.7077L19.6946 22.2701L16.6543 20.0684H20.4123L17.372 22.2701L18.5333 18.7077Z" fill="white"/>
<path d="M18.5333 25.6L19.6946 29.1624L16.6543 26.9607H20.4123L17.372 29.1624L18.5333 25.6Z" fill="white"/>
<path d="M22.6 1.47693L23.7613 5.0393L20.721 2.83763H24.479L21.4387 5.0393L22.6 1.47693Z" fill="white"/>
<path d="M22.6 8.36923L23.7613 11.9316L20.721 9.72994H24.479L21.4387 11.9316L22.6 8.36923Z" fill="white"/>
<path d="M22.6 15.2615L23.7613 18.8239L20.721 16.6222H24.479L21.4387 18.8239L22.6 15.2615Z" fill="white"/>
<path d="M22.6 22.1538L23.7613 25.7162L20.721 23.5145H24.479L21.4387 25.7162L22.6 22.1538Z" fill="white"/>
<path d="M22.6 29.0462L23.7613 32.6085L20.721 30.4069H24.479L21.4387 32.6085L22.6 29.0462Z" fill="white"/>
<path d="M26.6667 4.9231L27.828 8.48547L24.7877 6.2838H28.5457L25.5054 8.48547L26.6667 4.9231Z" fill="white"/>
<path d="M26.6667 11.8154L27.828 15.3778L24.7877 13.1761H28.5457L25.5054 15.3778L26.6667 11.8154Z" fill="white"/>
<path d="M26.6667 18.7077L27.828 22.2701L24.7877 20.0684H28.5457L25.5054 22.2701L26.6667 18.7077Z" fill="white"/>
<path d="M26.6667 25.6L27.828 29.1624L24.7877 26.9607H28.5457L25.5054 29.1624L26.6667 25.6Z" fill="white"/>
<path d="M30.7333 1.47693L31.8946 5.0393L28.8543 2.83763H32.6123L29.572 5.0393L30.7333 1.47693Z" fill="white"/>
<path d="M30.7333 8.36923L31.8946 11.9316L28.8543 9.72994H32.6123L29.572 11.9316L30.7333 8.36923Z" fill="white"/>
<path d="M30.7333 15.2615L31.8946 18.8239L28.8543 16.6222H32.6123L29.572 18.8239L30.7333 15.2615Z" fill="white"/>
<path d="M30.7333 22.1538L31.8946 25.7162L28.8543 23.5145H32.6123L29.572 25.7162L30.7333 22.1538Z" fill="white"/>
<path d="M30.7333 29.0462L31.8946 32.6085L28.8543 30.4069H32.6123L29.572 32.6085L30.7333 29.0462Z" fill="white"/>
</g>
<defs>
<clipPath id="clip0_335_5246">
<rect width="64" height="64" fill="white"/>
</clipPath>
</defs>
</svg>
