<svg width="57" height="56" viewBox="0 0 57 56" fill="none" xmlns="http://www.w3.org/2000/svg">
<rect x="0.5" width="56" height="56" rx="28" fill="#17D686"/>
<path fill-rule="evenodd" clip-rule="evenodd" d="M30.7638 12.266C29.5139 11.0148 27.4861 11.0148 26.2361 12.266L24.754 13.7496C24.0847 14.4196 23.153 14.7587 22.2097 14.6757L20.1206 14.4919C18.3589 14.3369 16.8055 15.6403 16.6522 17.4022L16.4705 19.4914C16.3884 20.4349 15.8927 21.2935 15.1167 21.8363L13.3982 23.0383C11.949 24.052 11.5969 26.049 12.612 27.4972L13.8157 29.2145C14.3593 29.9899 14.5314 30.9663 14.2859 31.8809L13.7421 33.9063C13.2835 35.6144 14.2974 37.3705 16.006 37.8274L18.0319 38.3692C18.9467 38.6138 19.7062 39.2511 20.106 40.1096L20.9913 42.0107C21.738 43.6139 23.6435 44.3074 25.246 43.5592L27.1462 42.672C28.0042 42.2714 28.9957 42.2714 29.8538 42.672L31.754 43.5592C33.3564 44.3074 35.262 43.6139 36.0086 42.0107L36.8939 40.1096C37.2937 39.2511 38.0533 38.6138 38.9681 38.3692L40.994 37.8274C42.7025 37.3705 43.7164 35.6144 43.2579 33.9063L42.7141 31.8809C42.4685 30.9663 42.6407 29.9899 43.1843 29.2145L44.388 27.4972C45.4031 26.049 45.0509 24.052 43.6017 23.0383L41.8833 21.8363C41.1073 21.2935 40.6116 20.4349 40.5295 19.4914L40.3478 17.4022C40.1945 15.6403 38.6411 14.3369 36.8793 14.4919L34.7903 14.6757C33.8469 14.7587 32.9153 14.4196 32.246 13.7496L30.7638 12.266ZM31.1391 23.9999C32.9953 23.9999 34.5 25.506 34.5 27.3639C34.5 29.2401 33.7489 30.1808 30.5634 32.6607L29.1139 33.7891C28.7528 34.0702 28.2472 34.0702 27.886 33.7891L26.4366 32.6607C23.251 30.1808 22.5 29.2401 22.5 27.3639C22.5 25.506 24.0047 23.9999 25.8609 23.9999C26.8554 23.9999 27.739 24.4685 28.5 25.3751C29.2609 24.4685 30.1446 23.9999 31.1391 23.9999Z" fill="white"/>
</svg>
