<svg width="57" height="56" viewBox="0 0 57 56" fill="none" xmlns="http://www.w3.org/2000/svg">
<rect x="0.166656" width="56" height="56" rx="28" fill="#AD4DEE"/>
<path fill-rule="evenodd" clip-rule="evenodd" d="M23.9765 18.9887C24.8112 19.7121 24.9015 20.9752 24.178 21.8099L20.5466 26H28.1667C33.6086 26 38.4152 28.7187 41.3026 32.8629C41.934 33.7692 41.7112 35.0157 40.8049 35.6472C39.8986 36.2786 38.652 36.0558 38.0206 35.1495C35.8491 32.0328 32.2451 30 28.1667 30H20.5466L24.178 34.1902C24.9015 35.0249 24.8112 36.288 23.9765 37.0114C23.1418 37.7348 21.8787 37.6446 21.1553 36.8099L14.6553 29.3099C14.0038 28.5582 14.0038 27.4419 14.6553 26.6902L21.1553 19.1902C21.8787 18.3555 23.1418 18.2652 23.9765 18.9887Z" fill="white"/>
</svg>
