<svg width="57" height="56" viewBox="0 0 57 56" fill="none" xmlns="http://www.w3.org/2000/svg">
<rect x="0.833344" width="56" height="56" rx="28" fill="#FF3A72"/>
<path d="M28.8333 14C36.5648 14 42.8333 20.2685 42.8333 28C42.8333 35.7315 36.5648 42 28.8333 42C21.1018 42 14.8333 35.7315 14.8333 28C14.8333 20.2685 21.1018 14 28.8333 14ZM28.8333 20C27.8392 20 27.0333 20.8059 27.0333 21.8V28C27.0333 28.2341 27.078 28.4577 27.1596 28.6635C27.1698 28.6893 27.1806 28.7149 27.1921 28.7403L27.2442 28.8462L27.2677 28.889L27.2931 28.932C27.3202 28.9766 27.3491 29.0199 27.3792 29.0614C27.3988 29.0881 27.4191 29.1144 27.441 29.1409C27.4658 29.1711 27.4915 29.2005 27.5175 29.2283L27.5388 29.2507L31.5606 33.2728L31.7449 33.4339C32.4504 33.9709 33.4618 33.9172 34.1061 33.2728L34.2672 33.0885C34.8042 32.3829 34.7505 31.3716 34.1061 30.7272L30.6313 27.252L30.6333 21.8C30.6333 20.8059 29.8275 20 28.8333 20Z" fill="white"/>
</svg>
