<svg width="221" height="221" viewBox="0 0 221 221" fill="none" xmlns="http://www.w3.org/2000/svg">
    <path d="M35.6938 40.7197L30.8711 48.3175C31.4313 45.4206 33.419 42.5397 35.6938 40.7197Z" fill="#FEFEFE" />
    <path
        d="M63.4822 43.7852C64.3994 45.1931 64.7578 46.6011 64.3903 48.2675C64.0785 49.681 63.2866 50.8549 62.0645 51.6346C60.7851 52.451 59.4092 52.5564 57.9475 52.3427L57.5977 52.2941C58.6282 50.5718 59.8156 48.9128 60.9639 47.2648C61.7754 46.1001 62.5602 44.8621 63.4822 43.7852Z"
        fill="#FEFEFE" />
    <path
        d="M67.5606 67.1973C69.7132 67.9686 71.7132 68.9551 73.6087 70.2338L67.6596 79.4018C65.8333 78.2254 64.014 77.5224 61.9492 76.8936L67.5606 67.1973Z"
        fill="#FEFEFE" />
    <path
        d="M50.9996 63.0479C53.5135 63.9772 56.0439 64.5913 58.6842 65.0413L52.8872 75.0537C50.368 74.4627 48.0108 73.687 45.6426 72.6397L50.9996 63.0479Z"
        fill="#FEFEFE" />
    <path
        d="M56.5125 38.3438C59.3411 39.7796 61.3681 41.4347 63.4827 43.7845C62.5606 44.8615 61.7759 46.0995 60.9644 47.2642C59.816 48.9122 58.6286 50.5712 57.5981 52.2935C57.103 52.0528 56.5967 51.8955 56.1362 51.579C55.5479 51.175 55.0316 50.5975 54.5127 50.1078C53.1858 48.8552 51.8744 48.1833 50.1504 47.6297L56.5125 38.3438Z"
        fill="#D8D8D8" />
    <path
        d="M43.9423 57.668C45.9883 60.0682 48.1468 61.7182 50.9984 63.0473L45.6414 72.6392C42.9562 71.3534 40.5451 69.6829 38.3457 67.6813L43.9423 57.668Z"
        fill="#D8D8D8" />
    <path d="M58.6838 65.041L67.5611 67.1969L61.9497 76.8932L52.8867 75.0534L58.6838 65.041Z" fill="#D8D8D8" />
    <path
        d="M73.6093 70.2334C76.0973 71.9731 78.285 74.0569 79.959 76.5995L72.9005 87.2703C71.8384 83.8797 70.4737 81.6098 67.6602 79.4014L73.6093 70.2334Z"
        fill="#D8D8D8" />
    <path
        d="M74.2109 37.6094L74.2193 36.743C74.5 36.6155 74.7515 36.5532 75.051 36.4971C76.7533 37.2403 78.2064 38.5194 79.4875 39.843C82.4138 42.8661 84.5624 46.349 86.0844 50.2629L86.901 52.6853L77.8625 63.1864C76.7898 59.7849 76.3982 56.085 75.9255 52.5609L74.2109 37.6094Z"
        fill="#FF86A9" />
    <path
        d="M48.826 36.4219C51.6267 36.6378 53.9149 37.3105 56.5126 38.3446L50.1504 47.6306C47.8158 47.1242 45.366 47.265 43.3204 48.6025C42.4437 49.1758 41.6125 50.0879 41.4141 51.1416C41.0523 53.0641 42.1469 55.2305 43.2479 56.7461C43.468 57.0489 43.6899 57.3946 43.9434 57.6688L38.3468 67.6821C37.9274 67.205 37.4085 66.7979 36.9722 66.3272C35.5357 64.7771 34.2643 63.1414 33.1836 61.3208L48.826 36.4219Z"
        fill="#FEFEFE" />
    <path
        d="M35.6952 40.7199C39.1623 37.556 44.2214 36.2367 48.8266 36.4212L33.1842 61.3202C31.2589 58.149 30.0142 54.103 30.4874 50.3665L30.8726 48.3176L35.6952 40.7199Z"
        fill="#D8D8D8" />
    <path
        d="M74.2108 37.6101C74.0066 36.229 74.0591 34.619 74.2264 33.2367C74.2841 32.7591 74.3053 32.2137 74.5241 31.7799C75.0724 31.4791 76.0386 31.8504 76.6203 32.0205L86.6787 35.0171L96.867 38.462C97.5316 38.6717 98.2074 38.7462 98.8797 38.9098C99.3294 39.0192 99.7599 39.2103 100.206 39.3385C100.72 39.4859 101.222 39.5712 101.67 39.8751C98.3749 41.7996 95.7008 44.1605 92.9361 46.7712L86.9008 52.686L86.0842 50.2636C84.5622 46.3497 82.4136 42.8668 79.4873 39.8437C78.2062 38.5201 76.7531 37.241 75.0508 36.4978C74.7513 36.5539 74.4998 36.6162 74.2192 36.7437L74.2108 37.6101Z"
        fill="#D8D8D8" />
    <path
        d="M97.4301 165.662C97.2597 165.428 97.1377 164.924 97.0292 164.638L96.1571 162.62C94.7934 159.803 92.7453 157.174 90.498 155.003C86.1816 150.833 80.7877 148.491 75.5043 145.847C64.3895 140.286 55.1897 131.374 49.7127 120.179C48.0229 116.725 46.7928 113.225 45.7082 109.541C45.2357 107.936 44.6776 106.189 44.5702 104.51C44.4851 103.181 44.6283 102.022 45.0701 100.766C45.7216 98.9141 47.3785 97.2197 49.1456 96.3982C50.8842 95.5903 53.444 95.5489 55.2262 96.2108C57.8791 97.1961 59.4223 99.0045 60.3894 101.607C60.7293 102.522 60.9689 103.487 61.3724 104.375C62.3039 105.13 63.9444 104.884 65.0569 104.814L68.3315 104.649L69.3885 110.262L69.2526 110.284C68.2875 110.43 67.3054 110.405 66.3323 110.446C64.8545 110.509 63.3548 110.648 61.8873 110.412L61.6816 110.382C59.9043 110.111 57.8037 108.801 56.7769 107.311C56.3208 106.649 56.2759 105.602 56.1157 104.834C55.826 103.446 55.1144 100.802 53.5481 100.408C52.7525 100.207 51.7949 100.542 51.1335 100.977C50.3324 101.503 49.8988 102.222 49.727 103.16C49.5204 104.286 49.9279 105.794 50.1867 106.908C51.6393 113.168 54.5022 119.498 58.2495 124.723C63.2438 131.686 69.9863 136.916 77.4117 141.079C79.6047 142.308 81.9334 143.268 84.171 144.412C89.3687 147.069 94.5021 150.865 97.6312 155.876C98.4242 157.145 99.0116 158.543 99.6454 159.896L97.4301 165.662Z"
        fill="#FE7500" />
    <path
        d="M116.9 39.9467C117.595 39.9858 118.458 40.1171 119.138 40.0112C120.017 39.8742 120.935 39.4052 121.805 39.1599L137.038 34.2283L144.384 32.1553C144.815 32.0369 146.052 31.5489 146.435 31.6519C146.533 31.6784 146.615 31.7469 146.704 31.7942C147.253 32.9536 147.114 35.0117 147.089 36.2809C146.781 41.8333 145.99 47.4257 145.24 52.9357L144.47 58.1193C144.182 59.8994 143.732 61.461 143.999 63.2712C144.109 63.6582 143.971 64.0315 143.876 64.4096C143.579 64.5044 143.259 64.6065 142.946 64.6244C142.094 64.6728 141.109 64.3981 140.27 64.2527C137.727 63.8127 135.246 63.3822 132.834 62.4297C132.145 62.1576 131.43 61.9012 130.853 61.4248C131.364 61.3797 132.198 61.2893 132.568 60.8953C132.888 60.5554 132.9 60.0444 132.846 59.6004C132.791 59.1536 132.497 58.8749 132.15 58.6183C130.888 57.6861 128.472 58.1197 127.009 58.3034L126.63 58.0024C121.165 53.5077 117.549 47.0089 116.9 39.9467Z"
        fill="#D8D8D8" />
    <path
        d="M143.999 63.2715C143.955 63.3818 143.929 63.4947 143.899 63.6099C142.683 62.9067 141.471 62.0198 140.394 61.1201C138.44 59.4874 136.492 57.4303 134.963 55.388C134.753 55.1074 134.319 54.6296 134.226 54.2932C134.15 54.0169 134.285 53.4702 134.328 53.1836C134.849 49.7304 136.899 46.0349 138.901 43.2111C140.338 41.185 142.142 39.1965 144.137 37.7045C145.058 37.0156 145.937 36.4755 147.089 36.2812C146.781 41.8337 145.99 47.4261 145.24 52.936L144.47 58.1196C144.182 59.8997 143.732 61.4613 143.999 63.2715Z"
        fill="#FF86A9" />
    <path
        d="M96.2804 169.112L96.526 169.418C96.7861 169.398 96.9052 169.37 97.1194 169.219L97.2075 169.226L119.111 169.237L125.052 169.284C126.16 169.583 127.345 169.552 128.482 169.555L132.636 169.557L141.624 169.545C142.865 169.525 144.313 169.191 145.515 169.553L145.679 169.607C146.373 169.832 146.986 170.191 147.493 170.723C147.793 171.037 148.11 171.455 148.19 171.892C148.367 172.856 148.341 173.85 148.343 174.827L148.349 178.806L148.297 190.715C149.76 190.847 150.741 190.891 151.867 191.949C151.969 192.328 152.165 192.857 152.103 193.247C151.987 193.984 151.463 194.565 150.855 194.954L150.703 195.047C150.501 195.173 150.342 195.25 150.103 195.289C149.403 195.404 148.55 195.313 147.835 195.313H143.075L125.785 195.313L91.8801 195.311L80.5187 195.313L74.2905 195.291C73.3572 195.255 72.018 195.246 71.2661 194.625C70.8007 194.24 70.5048 193.62 70.4645 193.018C70.3514 191.328 71.987 190.848 73.3059 190.574C73.4072 190.553 73.9756 190.478 74.0335 190.425C74.0456 190.414 74.0063 185.777 73.9915 183.821L73.9402 174.501C73.9418 173.132 73.818 171.6 74.0222 170.245C74.0547 170.029 74.157 169.839 74.3139 169.689C74.6779 169.343 75.1827 169.284 75.6622 169.245C77.8015 169.07 80.0557 169.3 82.2089 169.302L96.0913 169.333L96.2804 169.112Z"
        fill="#6C370A" />
    <path
        d="M99.6436 159.897C100.598 157.759 101.382 155.466 102.18 153.262C102.662 151.931 103.075 150.05 103.93 148.947C104.304 148.466 104.603 148.387 105.195 148.31L105.383 148.349C105.952 148.46 106.623 148.413 107.206 148.423L110.499 148.478C110.947 148.483 111.523 148.41 111.956 148.501C112.155 148.543 112.273 148.656 112.384 148.821C112.811 149.454 113.016 150.522 113.275 151.258L114.987 156.195L116.939 162.698L118.089 166.134C118.461 167.155 118.984 168.147 119.11 169.237L97.2064 169.226L97.1182 169.219C96.9041 169.371 96.7849 169.399 96.5248 169.419L96.2793 169.113C96.3416 168.027 97.0649 166.7 97.4283 165.663L99.6436 159.897Z"
        fill="#FECF04" />
    <path fill-rule="evenodd" clip-rule="evenodd"
        d="M154.688 91.9655L153.756 91.9395L139.329 91.9521L139.02 95.1227C139.005 95.3987 138.999 95.6708 138.993 95.9407C138.979 96.5971 138.965 97.2412 138.813 97.9009C138.596 98.8491 138.476 99.8172 138.356 100.783C138.309 101.162 138.262 101.541 138.209 101.917L137.33 106.59C134.408 119.667 127.794 131.422 116.436 138.894C114.853 139.935 113.195 140.916 111.47 141.71L106.166 144.021C106.093 144.051 105.928 144.102 105.74 144.16C105.382 144.271 104.94 144.408 104.895 144.473C105.377 145.098 105.271 147.451 105.195 148.309C104.603 148.387 104.304 148.466 103.93 148.947C103.298 149.762 102.908 151.002 102.553 152.131C102.427 152.53 102.306 152.915 102.18 153.262C102.043 153.641 101.906 154.022 101.769 154.404C101.107 156.249 100.434 158.126 99.6436 159.897L97.4283 165.663C97.3197 165.972 97.1791 166.308 97.0335 166.656C96.6918 167.471 96.323 168.351 96.2793 169.113L96.5248 169.419C96.7849 169.398 96.9041 169.371 97.1182 169.219L97.2064 169.226L119.11 169.237L125.051 169.285C125.041 169.268 125.031 169.252 125.02 169.235C124.845 168.955 124.675 168.685 124.586 168.362C124.542 168.204 124.459 168.006 124.37 167.798C124.204 167.403 124.02 166.969 124.057 166.685C124.242 165.251 125.235 163.641 126.07 162.287C126.244 162.004 126.412 161.733 126.564 161.476C128.164 158.772 130 156.191 132.367 154.094C135.16 151.62 138.38 150.044 141.667 148.436C142.185 148.183 142.705 147.928 143.225 147.669C146.793 145.894 150.278 144.034 153.587 141.805C153.792 141.667 153.998 141.53 154.204 141.393C155.019 140.852 155.841 140.305 156.596 139.694C158.492 138.161 160.371 136.562 162.079 134.82C167.655 129.135 171.995 122.061 174.436 114.486C175.322 111.737 176.084 108.849 176.385 105.973C176.674 103.214 176.508 100.891 174.689 98.6711C173.427 97.131 171.526 96.0375 169.524 95.8565C168.298 95.7457 166.824 96.1493 165.756 96.7573C164.294 97.5889 163.098 98.7272 162.286 100.207C161.987 100.751 161.739 101.321 161.491 101.891C161.265 102.411 161.039 102.93 160.774 103.43L160.752 103.472C160.494 103.961 160.204 104.509 159.768 104.851C158.418 105.907 156.424 105.693 154.786 105.517C154.654 105.503 154.524 105.489 154.396 105.475L154.7 95.3663L154.771 92.8873C154.772 92.8256 154.776 92.7633 154.78 92.7009C154.794 92.4482 154.809 92.193 154.688 91.9655ZM170.291 101.086C169.805 100.789 169.366 100.699 168.804 100.699C167.969 100.856 167.387 101.076 166.889 101.822C166.362 102.611 166.145 103.587 165.931 104.543C165.827 105.011 165.724 105.474 165.586 105.909C164.762 108.506 161.268 110.376 158.792 110.954C156.828 111.414 154.618 110.685 152.785 110.033C152.405 112.643 151.594 115.169 150.653 117.628C147.709 125.327 142.915 132.16 136.292 137.12C134.371 138.558 132.295 139.703 130.142 140.749C125.957 142.785 121.4 144.335 116.759 144.841C116.753 145.066 116.738 145.315 116.722 145.577C116.666 146.494 116.6 147.569 116.874 148.303L117.034 148.346C117.599 148.501 117.947 148.66 118.251 149.194C118.729 150.033 118.966 150.944 119.203 151.857C119.337 152.373 119.471 152.89 119.649 153.394L121.053 157.628L121.767 159.743C123.948 156.275 126.229 152.741 129.355 150.039C132.871 146.999 136.872 145.103 140.957 143.167C142.006 142.67 143.06 142.17 144.113 141.648C149.565 138.943 154.849 135.416 159.125 131.067C163.813 126.297 167.527 119.911 169.57 113.567C170.446 110.848 171.096 108.034 171.468 105.201C171.487 105.054 171.512 104.901 171.537 104.744C171.628 104.183 171.726 103.574 171.609 103.054C171.417 102.199 171.053 101.553 170.291 101.086Z"
        fill="#FE7500" />
    <path
        d="M101.671 39.875C103.18 39.5747 104.86 39.7101 106.401 39.7103L114.277 39.7318C115.153 39.759 116.022 39.9119 116.9 39.947C117.549 47.0093 121.165 53.508 126.629 58.0027L127.009 58.3037C128.472 58.1201 130.888 57.6865 132.149 58.6187C132.496 58.8752 132.79 59.1539 132.845 59.6008C132.899 60.0448 132.887 60.5557 132.568 60.8956C132.198 61.2897 131.364 61.3801 130.853 61.4251C131.429 61.9016 132.144 62.158 132.833 62.43C135.245 63.3825 137.727 63.813 140.269 64.2531C141.109 64.3985 142.093 64.6732 142.946 64.6248C143.259 64.6069 143.578 64.5048 143.875 64.41C143.468 66.4971 143.058 68.5884 142.354 70.6004C140.61 75.5924 137.373 79.6934 133.394 83.1112C132.201 84.1355 131.009 85.2101 129.707 86.0941L128.625 86.8037C129.474 88.4099 130.27 90.1253 130.424 91.9623L135.151 86.5745C136.249 85.3681 137.503 84.1963 138.471 82.8853L146.596 71.2994C147.667 69.8231 148.763 68.1287 150.068 66.8498C150.542 66.3855 151.327 66.1789 151.983 66.1718C152.637 66.1647 153.409 66.8096 153.986 66.7879C154.032 66.7862 154.306 66.6034 154.354 66.5762C155.302 66.0392 156.207 65.6745 157.279 66.1579C157.653 66.3263 157.987 66.5322 158.295 66.8038C158.424 66.9179 158.994 67.5676 159.093 67.5891C159.169 67.6054 159.63 67.4089 159.697 67.3822C160.996 66.8655 162.203 66.6412 163.246 67.7818C164.132 68.7509 164.095 70.6901 163.996 71.9222C163.757 74.921 162.262 77.7628 160.817 80.3454L157.212 86.4412C156.08 88.2948 155.024 90.1704 153.757 91.9397L139.33 91.9523L90.7259 91.9366C91.0968 90.0632 91.716 88.4749 92.6097 86.7962L91.459 86.0202C86.4299 82.4526 82.9434 77.3581 80.5095 71.7783C80.0419 70.706 79.5312 69.6422 79.1466 68.5363C78.5331 66.7718 78.1698 65.0259 77.8633 63.187L86.9017 52.6859L92.937 46.7711C95.7017 44.1604 98.3758 41.7995 101.671 39.875Z"
        fill="#FEFEFE" />
    <path
        d="M156.22 67.6054C156.453 67.5729 156.695 67.6339 156.9 67.7464C157.26 67.9428 157.552 68.3712 157.636 68.7683C157.71 69.1219 157.624 69.4295 157.404 69.7131C157.101 70.1018 156.783 70.2136 156.307 70.2667C156.086 70.2479 155.863 70.2262 155.66 70.1301C155.321 69.9699 155.066 69.7033 154.942 69.348C154.821 68.9992 154.868 68.6806 155.047 68.3623C155.302 67.9112 155.74 67.7221 156.22 67.6054Z"
        fill="#FF86A9" />
    <path
        d="M151.326 67.7131C151.55 67.6753 151.765 67.6538 151.986 67.7226C152.342 67.8331 152.653 68.1758 152.825 68.4947C152.995 68.8105 153.057 69.2072 152.922 69.5478C152.758 69.9644 152.386 70.1951 151.992 70.3558C151.739 70.3761 151.452 70.4064 151.21 70.3171C150.814 70.1708 150.459 69.8373 150.309 69.4426C150.175 69.0919 150.186 68.83 150.349 68.4934C150.557 68.0669 150.894 67.8624 151.326 67.7131Z"
        fill="#FF86A9" />
    <path
        d="M160.335 69.294L161.305 69.2432C161.752 69.2608 162.063 69.3534 162.36 69.7006C162.619 70.0041 162.749 70.4324 162.682 70.8262C162.578 71.4304 162.241 71.6717 161.766 72.0178L161.663 72.0286C161.48 72.0552 161.298 72.0989 161.111 72.0879C160.617 72.0587 160.078 71.7294 159.769 71.3555C159.426 70.9409 159.45 70.6014 159.499 70.088C159.734 69.7139 159.963 69.5276 160.335 69.294Z"
        fill="#FF86A9" />
    <path
        d="M85.0729 65.663C85.2524 65.6162 85.4409 65.5815 85.6272 65.5852C86.0661 65.5939 86.5565 65.8208 86.9627 65.976C88.5369 66.5782 89.9743 67.3994 91.4324 68.2348C91.8554 68.4772 92.5938 68.7866 92.9063 69.157C93.2614 69.578 93.2698 69.874 93.2358 70.4112C92.8643 71.1964 91.843 71.7538 91.1434 72.2382L87.5879 74.608C87.1651 74.8244 86.5921 75.0449 86.1127 75.0893C85.7808 75.1201 85.4961 75.0186 85.2698 74.7654C85.0526 74.5225 85.0612 74.2763 85.0519 73.9722C85.547 72.853 88.7888 71.0934 89.8697 70.3988C88.4162 69.7668 86.3034 68.8949 85.1713 67.7921C84.8263 67.456 84.4685 66.926 84.5067 66.4184C84.5352 66.0396 84.8095 65.8776 85.0729 65.663Z"
        fill="#D8D8D8" />
    <path
        d="M135.709 65.5244C136.109 65.6155 136.296 65.7098 136.6 65.987C136.766 66.3423 136.744 66.5735 136.703 66.9583C135.785 68.5921 133.018 69.671 131.342 70.395C132.559 71.1484 133.829 71.8611 134.975 72.7171C135.302 72.9617 135.752 73.2481 135.975 73.5947C136.145 73.8585 136.239 74.1825 136.118 74.4888C135.993 74.8073 135.758 74.9328 135.481 75.0922C134.957 75.1366 134.582 75.0124 134.092 74.8561C132.549 74.126 131.066 73.0698 129.707 72.0455C129.093 71.5822 128.354 71.0996 127.983 70.4114C127.939 70.058 127.917 69.7586 128.107 69.4401C128.462 68.8452 129.351 68.4827 129.94 68.1486C131.74 67.126 133.657 65.9313 135.709 65.5244Z"
        fill="#D8D8D8" />
    <path
        d="M127.008 58.3031C128.471 58.1195 130.887 57.6859 132.149 58.6181C132.496 58.8747 132.789 59.1533 132.844 59.6002C132.899 60.0442 132.887 60.5551 132.567 60.895C132.197 61.2891 131.363 61.3795 130.852 61.4246C128.279 61.3207 125.605 61.7797 123.233 62.7989C122.43 63.1441 121.704 63.5952 120.93 63.9917C120.619 64.151 120.343 64.1866 120.016 64.0542C119.737 63.9411 119.562 63.6984 119.466 63.4182C119.239 62.7589 119.378 62.0756 119.739 61.4957C120.076 60.954 120.724 60.5901 121.282 60.3056C123.069 59.3955 125.071 58.786 127.008 58.3031Z"
        fill="#390D0E" />
    <path
        d="M106.185 76.2074C107.923 76.1583 109.35 75.808 110.611 74.541C111.997 75.785 113.102 76.1472 114.936 76.1981C115.005 76.4416 115.019 76.6986 115.025 76.9508C115.058 78.2991 114.492 79.8746 113.536 80.838C112.77 81.6101 111.636 82.0559 110.546 82.0287C109.406 82.0002 108.283 81.4981 107.508 80.6627C106.388 79.4563 106.13 77.7853 106.185 76.2074Z"
        fill="#FF86A9" />
    <path
        d="M153.074 71.0283C154.441 70.9132 156.006 71.1759 157.234 71.8009C158.038 72.2098 158.744 72.8803 159.011 73.7614C159.241 74.5188 159.186 75.3047 158.811 76.0037C158.205 77.1345 157.026 77.6605 155.867 78.0331C154.984 78.1666 154.012 78.2177 153.143 77.9821L152.963 77.9304C152.335 77.7553 151.734 77.5049 151.199 77.1264C150.386 76.55 149.736 75.7398 149.594 74.7279C149.481 73.9234 149.755 73.1168 150.23 72.4719C150.955 71.4882 151.938 71.2213 153.074 71.0283Z"
        fill="#FF86A9" />
    <path
        d="M95.2998 56.2403C95.991 56.2074 96.6361 56.2133 97.2821 56.494C98.489 57.0184 99.1978 58.1294 99.6272 59.3246C100.223 60.9816 100.234 62.8124 99.4428 64.4142C98.8181 65.6796 97.8508 66.3616 96.5506 66.8165C96.0374 66.8315 95.5601 66.8492 95.0686 66.6719C93.861 66.2363 92.8498 64.9926 92.3514 63.8361C91.7147 62.3582 91.724 60.6278 92.3174 59.1338C92.8855 57.7031 93.905 56.829 95.2998 56.2403Z"
        fill="#390D0E" />
    <path
        d="M106.183 76.2071L105.024 76.0278C103.562 75.6707 102.188 74.817 101.426 73.4865C100.939 72.6383 100.456 70.6653 100.795 69.6862C100.902 69.3751 101.086 69.202 101.386 69.0778C101.604 68.9872 101.736 68.9819 101.975 69.0469C102.252 69.1225 102.508 69.4078 102.618 69.6557C102.75 69.9499 102.728 70.38 102.746 70.7004C102.821 72.033 103.415 73.1047 104.615 73.761C105.307 74.1398 106.123 74.1597 106.871 73.9352C107.869 73.6357 108.591 72.9329 109.06 72.0167C109.317 71.5121 109.555 70.8041 109.555 70.2374L109.425 70.1585C108.748 69.7368 107.926 69.0226 107.723 68.2192C107.599 67.7264 107.823 67.219 108.095 66.817C108.564 66.1206 109.174 65.8119 109.992 65.6837C110.821 65.5538 111.822 65.6616 112.499 66.1966C112.992 66.5858 113.307 67.2603 113.36 67.8818C113.404 68.3898 113.161 68.8177 112.82 69.1737C112.48 69.528 112.058 69.7645 111.637 70.0062C111.797 71.3196 112.182 72.5376 113.268 73.3891C113.884 73.8722 114.812 74.171 115.594 74.0634C116.566 73.9297 117.401 73.3184 117.942 72.5153C118.212 72.1139 118.391 71.6458 118.453 71.1663C118.575 70.2228 118.305 69.3905 119.402 69.0022C119.748 69.0403 120.045 69.0836 120.265 69.3857C120.711 69.9952 120.474 71.3508 120.314 72.0476C119.998 73.4293 119.236 74.4879 118.03 75.2225C117.057 75.815 116.044 76.0267 114.934 76.1978C113.101 76.1469 111.996 75.7847 110.609 74.5407C109.349 75.8077 107.921 76.158 106.183 76.2071Z"
        fill="#390D0E" />
    <path
        d="M79.9582 76.5996C81.2588 78.4664 82.1717 80.5215 82.9296 82.6574C83.8502 85.789 84.2569 88.6773 84.0531 91.9352L90.7249 91.9363L139.329 91.952L139.02 95.1227C138.967 96.0697 139.027 96.9698 138.813 97.9009C138.511 99.2207 138.397 100.579 138.209 101.917L137.33 106.59C134.408 119.667 127.794 131.422 116.436 138.894C114.853 139.935 113.195 140.916 111.47 141.71L106.166 144.021C105.954 144.108 104.964 144.373 104.895 144.473C103.714 144.551 102.415 144.185 101.288 143.88L97.8798 142.923C93.9044 141.715 90.1806 139.666 86.8523 137.207C85.7053 136.36 84.5177 135.529 83.4553 134.575C78.7767 130.377 75.0737 124.934 72.5516 119.192C71.8292 117.547 71.2342 115.786 70.7005 114.072C70.3233 112.859 70.0669 111.508 69.4594 110.391L69.3867 110.263L68.3296 104.649L67.1152 91.9447L73.025 91.9374C73.2425 90.3157 73.1333 88.8759 72.8997 87.2704L79.9582 76.5996Z"
        fill="#FECF04" />
    <path
        d="M79.9589 76.5996C81.2595 78.4664 82.1724 80.5215 82.9303 82.6574C83.8509 85.789 84.2576 88.6773 84.0538 91.9352L81.7017 91.941C82.0407 93.452 81.6294 95.2164 81.7086 96.7716C81.9709 101.937 82.6038 107.417 84.2589 112.334C85.2317 115.224 86.6212 117.835 88.3021 120.366L89.7359 122.382C90.1786 122.95 90.7786 123.55 91.0014 124.243C90.7937 124.991 90.5853 125.708 90.0458 126.297C89.3972 127.005 88.2334 127.4 87.278 127.412C85.7082 127.432 84.5992 126.325 83.5844 125.276C81.2831 122.896 79.9364 120.096 78.7721 117.043C77.0439 112.512 76.1164 108.02 75.374 103.243C74.7824 99.4353 74.2956 95.8008 74.3623 91.9388L73.0257 91.9374C73.2432 90.3157 73.134 88.8759 72.9004 87.2704L79.9589 76.5996Z"
        fill="#FEFEFE" />
    <path
        d="M82.9308 82.6572C83.8515 85.7888 84.2581 88.677 84.0544 91.935L81.7023 91.9408L75.4219 91.9211L82.9308 82.6572Z"
        fill="#D8D8D8" />
</svg>