<svg width="170" height="198" viewBox="0 0 170 198" fill="none" xmlns="http://www.w3.org/2000/svg">
    <g clip-path="url(#clip0_1035_24403)">
        <rect width="170" height="198" fill="var(--bg)" />
        <path fill-rule="evenodd" clip-rule="evenodd"
            d="M56.1302 243V101.935C56.1302 74.9089 78.0391 53 105.065 53C132.091 53 154 74.9089 154 101.935V243H56.1302ZM105.065 37C140.928 37 170 66.0724 170 101.935V243V259H154H56.1302H40.1302V243V101.935C40.1302 66.0724 69.2025 37 105.065 37ZM3.8147e-06 243V101.935C3.8147e-06 74.9089 21.9089 53 48.9349 53C75.9609 53 97.8698 74.9089 97.8698 101.935V243H3.8147e-06ZM48.9349 37C84.7975 37 113.87 66.0724 113.87 101.935V243V259H97.8698H3.8147e-06H-16V243V101.935C-16 66.0724 13.0723 37 48.9349 37Z"
            fill="var(--bg-secondary)" />
    </g>
    <defs>
        <clipPath id="clip0_1035_24403">
            <rect width="170" height="198" fill="white" />
        </clipPath>
    </defs>
</svg>