<svg width="170" height="198" viewBox="0 0 170 198" fill="none" xmlns="http://www.w3.org/2000/svg">
    <g clip-path="url(#clip0_1035_24404)">
        <rect width="170" height="198" fill="var(--bg)" />
        <path
            d="M-104.868 17.7442C-113.417 16.2502 -121.244 14.7017 -129.366 11.5082L-128.936 9.41159C-116.512 3.42737 -96.2284 5.44256 -82.3598 4.4807C-74.0414 3.91622 -65.5073 1.7088 -57.3396 0.0354624L-127.192 -36.1537C-115.017 -35.968 -103.46 -31.9514 -91.6446 -29.1136L-47.5047 -20.3337C-52.7653 -28.1973 -64.5542 -35.025 -71.5049 -41.9404C-82.6792 -53.0542 -92.8297 -65.3737 -102.911 -77.474L-32.2733 -35.4914L-69.3758 -110.633L-14.9405 -47.3086L-14.3666 -47.8982C-17.6311 -58.1196 -17.5255 -66.5493 -19.0691 -76.8553C-21.7739 -94.9147 -25.1728 -112.293 -26.0243 -130.631C-20.6487 -122.679 -17.5514 -113.067 -13.9063 -104.215C-6.65696 -86.6208 0.114519 -68.6999 8.80587 -51.7492L21.8369 -136.738L29.7303 -53.2346L69.204 -128.367C66.6536 -100.459 57.213 -72.3486 48.862 -45.7391C72.7452 -61.4316 88.7901 -85.2876 111.738 -101.859C107.369 -91.7124 100.928 -82.8929 94.9559 -73.6839C85.1908 -58.6436 76.6631 -44.7077 64.0664 -31.7224C84.2215 -36.9446 106.861 -44.1997 123.503 -57.1199C127.359 -60.0949 130.723 -61.353 135.414 -62.5701L138.323 -60.7936C128.102 -51.0404 119.141 -39.2471 108.389 -30.1446C99.2543 -22.4063 88.4141 -16.7674 78.9567 -9.1806C90.8298 -8.85482 101.55 -13.352 112.872 -16.3463C130.395 -20.9622 146.563 -23.313 164.636 -21.7159L90.335 10.1214C123.5 17.0001 123.5 17.0001 164.814 23.1758C130 27.5001 129.5 27.5001 84.8569 30.9085L156.27 69.1362C117 61.5001 117.5 61.5001 78.08 53.688C104 81.3691 133.711 114.136 133.711 114.136C133.711 114.136 90.335 86.7911 61.1291 68.8109L99.5903 146.898L42.2719 79.6099L56.0047 168.325L21.4615 86.7911C17 114.136 17 114.136 5.82484 170.278L-0.60731 88.5432L-39.5566 155.887L-20.1986 81.3691L-58.5786 115.252C-65.8435 121.815 -73.009 129.937 -82.0534 133.748L-41.4158 65.0401C-63.7668 79.1332 -85.5348 89.2657 -110.822 97.0322C-95.8732 80.0085 -75.5421 67.6853 -58.982 52.1123L-60.1164 47.8786L-132.78 58.333L-106.886 43.2909L-105.56 33.0283C-107.998 25.9537 -106.987 24.6921 -104.868 17.7442ZM-106.886 43.2909L-65.708 30.7115L-65.283 28.5964C-66.7585 26.5744 -67.4747 24.4877 -69.9947 24.0137L-89.886 19.5354C-94.6344 18.331 -99.9794 18.2373 -104.868 17.7442C-106.987 24.6921 -107.998 25.9537 -105.56 33.0283L-106.886 43.2909Z"
            fill="var(--bg-secondary)" />
    </g>
    <defs>
        <clipPath id="clip0_1035_24404">
            <rect width="170" height="198" fill="white" />
        </clipPath>
    </defs>
</svg>