<svg width="170" height="198" viewBox="0 0 170 198" fill="none" xmlns="http://www.w3.org/2000/svg">
    <g clip-path="url(#clip0_1035_24395)">
        <rect width="170" height="198" fill="var(--bg)" />
        <path
            d="M13.7555 85.0008C15.5072 84.9819 17.3763 85.2775 18.9751 86.0589C22.396 87.7246 23.8185 90.6221 25.1822 93.9665L32.5179 113.862C37.1027 105.412 41.7463 93.0763 50.3163 88.006C54.5014 85.5234 58.7569 85.0505 63.4358 86.3473C71.7942 88.668 77.2137 101.398 81.293 108.5C82.5862 110.75 83.4796 111.754 85.9836 112.439C87.3826 106.265 92.4611 91.8174 97.3868 87.9705C99.5969 86.2457 101.96 85.4335 104.77 85.8236C118.512 87.7269 117.395 105.647 123.461 114.555C128.175 108.973 126.342 95.9892 131.785 89.0746C134.136 86.0955 136.028 86.2776 139.473 85.936C141.812 87.3558 142.365 88.1053 143.576 90.5607C146.456 96.3853 147.455 102.685 149.066 108.901C156.719 138.447 155.437 169.47 145.445 198.266C144.128 202.073 142.835 204.944 139.085 206.766C126.271 205.85 128.987 187.805 121.345 180.758C119.699 183.363 119.511 186.763 118.594 189.689C117.419 193.419 115.385 197.565 113.422 200.935C111.094 204.932 108.931 205.256 104.793 206.428C102.936 206.285 100.761 206.191 99.1268 205.218C90.9212 200.337 87.9704 184.75 86.1247 176.087C77.778 183.823 77.7898 198.475 66.3396 204.78C62.9774 206.632 56.1237 207.785 52.4794 206.366C42.7925 202.607 37.1968 188.429 32.8589 179.739L25.4879 199.508C23.5247 203.218 20.4329 205.047 16.5299 206.124C14.0964 206.797 11.7099 206.279 9.53508 204.982C0.306707 199.472 -2.00913 185.593 -4.50138 176.007C-7.32279 186.017 -9.62696 195.258 -14.8113 204.401C-17.5975 206.208 -17.7503 206.544 -20.9949 206.177C-23.8869 204.018 -24.8508 201.66 -26.2851 198.491C-33.4562 182.661 -33.7735 166.1 -34.7963 149.068C-35.7015 134.154 -33.4679 119.295 -30.5054 104.767C-29.3416 99.0546 -27.8486 91.4497 -23.9339 86.9987C-20.172 86.1925 -19.1727 86.0116 -15.3991 87.3652L-5.06564 116.174L1.16489 101.259C4.08035 94.6096 6.6785 87.7707 13.7555 85.0008Z"
            fill="var(--bg-secondary)" />
        <path
            d="M173.756 -75.9992C175.507 -76.0181 177.376 -75.7225 178.975 -74.9411C182.396 -73.2754 183.819 -70.3779 185.182 -67.0335L192.518 -47.1385C197.103 -55.5875 201.746 -67.9237 210.316 -72.994C214.501 -75.4766 218.757 -75.9495 223.436 -74.6527C231.794 -72.332 237.214 -59.6023 241.293 -52.4997C242.586 -50.25 243.48 -49.2463 245.984 -48.5606C247.383 -54.7352 252.461 -69.1826 257.387 -73.0295C259.597 -74.7543 261.96 -75.5665 264.77 -75.1764C278.512 -73.2731 277.395 -55.3535 283.461 -46.4445C288.175 -52.0268 286.342 -65.0108 291.785 -71.9254C294.136 -74.9045 296.028 -74.7224 299.473 -75.064C301.812 -73.6442 302.365 -72.8947 303.576 -70.4393C306.456 -64.6147 307.455 -58.3149 309.066 -52.099C316.719 -22.5526 315.437 8.47026 305.445 37.2659C304.128 41.0725 302.835 43.9441 299.085 45.7658C286.271 44.8496 288.987 26.8048 281.345 19.7578C279.699 22.3633 279.511 25.7632 278.594 28.6891C277.419 32.4189 275.385 36.5649 273.422 39.9353C271.094 43.9322 268.931 44.2561 264.793 45.4277C262.936 45.2846 260.761 45.1912 259.127 44.2183C250.921 39.3371 247.97 23.75 246.125 15.087C237.778 22.8232 237.79 37.4752 226.34 43.7797C222.977 45.6322 216.124 46.7848 212.479 45.3662C202.793 41.6069 197.197 27.4289 192.859 18.7387L185.488 38.5084C183.525 42.2181 180.433 44.0469 176.53 45.1239C174.096 45.7965 171.71 45.2788 169.535 43.9819C160.307 38.4718 157.991 24.5929 155.499 15.0066C152.677 25.0173 150.373 34.2584 145.189 43.4014C142.403 45.2078 142.25 45.5436 139.005 45.1771C136.113 43.0184 135.149 40.66 133.715 37.4905C126.544 21.6611 126.226 5.09983 125.204 -11.9319C124.298 -26.8463 126.532 -41.7052 129.495 -56.2331C130.658 -61.9454 132.151 -69.5503 136.066 -74.0013C139.828 -74.8075 140.827 -74.9884 144.601 -73.6348L154.934 -44.8261L161.165 -59.7406C164.08 -66.3904 166.678 -73.2293 173.756 -75.9992Z"
            fill="var(--bg-secondary)" />
    </g>
    <defs>
        <clipPath id="clip0_1035_24395">
            <rect width="170" height="198" fill="white" />
        </clipPath>
    </defs>
</svg>